<mxfile host="app.diagrams.net" agent="Mozilla/5.0 (Windows NT 10.0; Win64; x64) AppleWebKit/537.36 (KHTML, like Gecko) Chrome/140.0.0.0 Safari/537.36" version="28.2.1">
  <diagram name="PÃ¡gina-1" id="hoqxDsl1G6cgKhzViu0Y">
    <mxGraphModel dx="946" dy="571" grid="1" gridSize="10" guides="1" tooltips="1" connect="1" arrows="1" fold="1" page="1" pageScale="1" pageWidth="827" pageHeight="1169" math="0" shadow="0">
      <root>
        <mxCell id="0" />
        <mxCell id="1" parent="0" />
        <mxCell id="8cyA2CDWVKGSMlbzbImf-1" value="ARQUIVO" style="shape=document;whiteSpace=wrap;html=1;boundedLbl=1;" vertex="1" parent="1">
          <mxGeometry x="40" y="330" width="120" height="80" as="geometry" />
        </mxCell>
        <mxCell id="8cyA2CDWVKGSMlbzbImf-2" value="S3" style="outlineConnect=0;dashed=0;verticalLabelPosition=bottom;verticalAlign=top;align=center;html=1;shape=mxgraph.aws3.s3;fillColor=#E05243;gradientColor=none;" vertex="1" parent="1">
          <mxGeometry x="240" y="150" width="76.5" height="93" as="geometry" />
        </mxCell>
        <mxCell id="8cyA2CDWVKGSMlbzbImf-3" value="LAMBDA&lt;div&gt;NODE JS&lt;/div&gt;&lt;div&gt;NET CORE&lt;/div&gt;&lt;div&gt;PYTHON&lt;/div&gt;" style="outlineConnect=0;dashed=0;verticalLabelPosition=bottom;verticalAlign=top;align=center;html=1;shape=mxgraph.aws3.lambda;fillColor=#F58534;gradientColor=none;" vertex="1" parent="1">
          <mxGeometry x="440" y="150" width="76.5" height="93" as="geometry" />
        </mxCell>
        <mxCell id="8cyA2CDWVKGSMlbzbImf-4" value="SISTEMA DE ARQUIVOS&lt;div&gt;&lt;br&gt;&lt;/div&gt;" style="verticalLabelPosition=bottom;sketch=0;html=1;fillColor=#A153A0;verticalAlign=top;align=center;pointerEvents=1;shape=mxgraph.cisco_safe.design.actor_1;" vertex="1" parent="1">
          <mxGeometry x="330" y="345" width="23.5" height="50" as="geometry" />
        </mxCell>
        <mxCell id="8cyA2CDWVKGSMlbzbImf-5" value="DYNAMO" style="outlineConnect=0;dashed=0;verticalLabelPosition=bottom;verticalAlign=top;align=center;html=1;shape=mxgraph.aws3.dynamo_db;fillColor=#2E73B8;gradientColor=none;" vertex="1" parent="1">
          <mxGeometry x="670" y="156" width="72" height="81" as="geometry" />
        </mxCell>
        <mxCell id="8cyA2CDWVKGSMlbzbImf-6" value="" style="endArrow=classic;html=1;rounded=0;exitX=0.213;exitY=0.5;exitDx=0;exitDy=0;exitPerimeter=0;flowAnimation=1;" edge="1" parent="1" source="8cyA2CDWVKGSMlbzbImf-4" target="8cyA2CDWVKGSMlbzbImf-1">
          <mxGeometry width="50" height="50" relative="1" as="geometry">
            <mxPoint x="390" y="320" as="sourcePoint" />
            <mxPoint x="440" y="270" as="targetPoint" />
          </mxGeometry>
        </mxCell>
        <mxCell id="8cyA2CDWVKGSMlbzbImf-7" value="" style="endArrow=classic;html=1;rounded=0;entryX=0;entryY=0.5;entryDx=0;entryDy=0;entryPerimeter=0;exitX=0.408;exitY=0.063;exitDx=0;exitDy=0;exitPerimeter=0;flowAnimation=1;" edge="1" parent="1" source="8cyA2CDWVKGSMlbzbImf-1" target="8cyA2CDWVKGSMlbzbImf-2">
          <mxGeometry width="50" height="50" relative="1" as="geometry">
            <mxPoint x="390" y="320" as="sourcePoint" />
            <mxPoint x="440" y="270" as="targetPoint" />
            <Array as="points">
              <mxPoint x="89" y="197" />
            </Array>
          </mxGeometry>
        </mxCell>
        <mxCell id="8cyA2CDWVKGSMlbzbImf-8" value="" style="endArrow=classic;html=1;rounded=0;flowAnimation=1;" edge="1" parent="1" source="8cyA2CDWVKGSMlbzbImf-2" target="8cyA2CDWVKGSMlbzbImf-3">
          <mxGeometry width="50" height="50" relative="1" as="geometry">
            <mxPoint x="390" y="320" as="sourcePoint" />
            <mxPoint x="440" y="270" as="targetPoint" />
          </mxGeometry>
        </mxCell>
        <mxCell id="8cyA2CDWVKGSMlbzbImf-9" value="" style="endArrow=classic;html=1;rounded=0;flowAnimation=1;" edge="1" parent="1" source="8cyA2CDWVKGSMlbzbImf-3" target="8cyA2CDWVKGSMlbzbImf-5">
          <mxGeometry width="50" height="50" relative="1" as="geometry">
            <mxPoint x="390" y="320" as="sourcePoint" />
            <mxPoint x="440" y="270" as="targetPoint" />
          </mxGeometry>
        </mxCell>
        <mxCell id="8cyA2CDWVKGSMlbzbImf-12" value="TRIGGER" style="text;html=1;align=center;verticalAlign=middle;whiteSpace=wrap;rounded=0;" vertex="1" parent="1">
          <mxGeometry x="350" y="170" width="60" height="30" as="geometry" />
        </mxCell>
        <mxCell id="8cyA2CDWVKGSMlbzbImf-13" value="AWS CLI&lt;div&gt;TRANSFER FILE&lt;/div&gt;" style="text;html=1;align=center;verticalAlign=middle;whiteSpace=wrap;rounded=0;" vertex="1" parent="1">
          <mxGeometry x="90" y="250" width="110" height="40" as="geometry" />
        </mxCell>
      </root>
    </mxGraphModel>
  </diagram>
</mxfile>
